<svg width="18" height="19" viewBox="0 0 18 19" fill="none" xmlns="http://www.w3.org/2000/svg">
<path d="M9 9.60437C8.175 9.60437 7.5 8.92937 7.5 8.10437C7.5 7.27937 8.175 6.60437 9 6.60437C9.825 6.60437 10.5 7.27937 10.5 8.10437C10.5 8.92937 9.825 9.60437 9 9.60437ZM13.5 8.25437C13.5 5.53187 11.5125 3.60437 9 3.60437C6.4875 3.60437 4.5 5.53187 4.5 8.25437C4.5 10.0094 5.9625 12.3344 9 15.1094C12.0375 12.3344 13.5 10.0094 13.5 8.25437ZM9 2.10437C12.15 2.10437 15 4.51937 15 8.25437C15 10.7444 12.9975 13.6919 9 17.1044C5.0025 13.6919 3 10.7444 3 8.25437C3 4.51937 5.85 2.10437 9 2.10437Z" fill="#4271CB"/>
</svg>
