<svg width="32" height="32" viewBox="0 0 32 32" fill="none" xmlns="http://www.w3.org/2000/svg">
<path d="M29.2831 17.2481H30.375V14.7519H29.2831V17.2481ZM27.1315 14.021H28.2234V17.979H27.1315V14.021ZM25.016 11.9738H26.1079V20.0263H25.016V11.9738ZM23.0049 10.394H24.0968V21.5323H23.0049V10.3967V10.394ZM20.8519 13.1141H21.9438V18.886H20.8519V13.1141ZM18.6648 8.74665H19.7567V23.5004H18.6614V8.74665H18.6648ZM16.5125 6.63128H17.6044V25.3688H16.5125V6.63128ZM14.397 9.52402H15.4889V22.4761H14.397V9.52396V9.52402ZM12.2085 13.2022H13.3004V18.6615H12.2085V13.2022ZM10.0931 14.5036H11.1849V17.5013H10.0931V14.4986V14.5036ZM7.97756 12.8998H9.06944V19.1023H7.97756V12.8978V12.8998ZM5.89619 9.89734H6.98806V22.4576H5.89625V9.89515L5.89619 9.89734ZM3.78075 11.8162H4.87262V20.2917H3.78075V11.8141V11.8162ZM1.625 14.021H2.71688V17.979H1.625V14.021Z" fill="#4271CB"/>
</svg>
