<svg width="18" height="19" viewBox="0 0 18 19" fill="none" xmlns="http://www.w3.org/2000/svg">
<path d="M2.77778 4.89008L7.52844 8.5138L7.53 8.51537C8.05733 8.90587 8.321 9.10151 8.61033 9.17694C8.8659 9.24375 9.1341 9.24375 9.38967 9.17694C9.679 9.10151 9.94344 8.90587 10.4723 8.5138C10.4723 8.5138 13.5189 6.15194 15.2222 4.89008M2 12.5901V6.61866C2 5.73866 2 5.29866 2.16956 4.96237C2.31889 4.66616 2.55611 4.42651 2.84933 4.27566C3.18222 4.10437 3.61778 4.10437 4.48889 4.10437H13.5111C14.3822 4.10437 14.8178 4.10437 15.1499 4.27566C15.4431 4.42651 15.6811 4.66616 15.8304 4.96237C16 5.29787 16 5.73787 16 6.6163V12.5932C16 13.4717 16 13.9101 15.8304 14.2464C15.681 14.5421 15.4428 14.7825 15.1499 14.9331C14.8178 15.1044 14.383 15.1044 13.5134 15.1044H4.48656C3.617 15.1044 3.18144 15.1044 2.84933 14.9331C2.55665 14.7824 2.31869 14.542 2.16956 14.2464C2 13.9101 2 13.4701 2 12.5901Z" stroke="#4271CB" stroke-width="1.5" stroke-linecap="round" stroke-linejoin="round"/>
</svg>
