<svg width="63" height="24" viewBox="0 0 63 24" fill="none" xmlns="http://www.w3.org/2000/svg">
<g clip-path="url(#clip0_166_511)">
<path d="M57.2827 7.21207C56.9214 6.18823 56.3194 5.26978 55.4916 4.42662C54.8294 3.79425 54.0317 3.31244 53.0835 2.96614C52.1353 2.61984 51.0969 2.45422 49.9831 2.45422C47.1686 2.45422 44.881 3.52323 43.1351 5.64619C41.7504 3.52323 39.6885 2.45422 36.9342 2.45422L36.9493 2.46928C36.8289 2.46928 36.7085 2.45422 36.573 2.45422C33.7585 2.45422 31.4708 3.52323 29.725 5.64619C28.3403 3.52323 26.2784 2.45422 23.5241 2.45422L23.5392 2.46928C23.4338 2.46928 23.3285 2.45422 23.2231 2.45422H23.178C20.3785 2.45422 18.1059 3.50818 16.36 5.60102C16.0891 5.1945 15.7731 4.80303 15.3968 4.44168C15.2312 4.29111 15.0657 4.14055 14.8851 4.00504C13.6359 2.9812 12.0555 2.45422 10.1291 2.45422H10.114C10.0839 2.45422 10.0388 2.45422 10.0087 2.45422C9.96351 2.45422 9.91836 2.45422 9.88826 2.45422C7.70592 2.45422 5.83964 3.10165 4.30448 4.38145V2.71018H0V16.9687H0.0301012H4.39478H4.42488V11.0364C4.42488 10.2535 4.54529 9.57593 4.7861 8.98873C5.02691 8.40153 5.35802 7.91972 5.76439 7.52825C6.27611 7.07656 6.86308 6.76037 7.49521 6.57969C7.54036 6.56464 7.58551 6.54958 7.61561 6.54958C7.63066 6.54958 7.64571 6.54958 7.67582 6.53452C8.08218 6.44419 8.48855 6.38396 8.92502 6.38396C10.1592 6.38396 11.1826 6.77543 12.0405 7.54331C12.8833 8.32624 13.3047 9.54582 13.3047 11.2472V16.9687H13.3198H13.3348H17.6995H17.7146H17.7296V10.8256C17.7447 10.133 17.8651 9.5157 18.0908 8.97367C18.3317 8.38647 18.6628 7.88961 19.0842 7.5132C19.5056 7.12173 19.9872 6.83565 20.529 6.65498C21.0709 6.4743 21.6428 6.38396 22.2448 6.3689C23.479 6.3689 24.5175 6.76037 25.3603 7.52825C26.2031 8.31119 26.6245 9.54582 26.6245 11.2321V16.9536H26.6396H26.6847H31.0043H31.0193H31.0645V11.0364C31.0645 10.2535 31.1849 9.57593 31.4257 8.98873C31.6665 8.40153 31.9976 7.90466 32.419 7.52825C32.8405 7.13678 33.3221 6.85071 33.8639 6.67003C34.4057 6.48936 34.9776 6.38396 35.5797 6.38396C36.8138 6.38396 37.8523 6.77543 38.7102 7.54331C39.553 8.32624 39.9744 9.56087 39.9744 11.2472V16.9687H40.0948H44.3993H44.5047V11.0364C44.5047 10.2535 44.6251 9.57593 44.8659 8.98873C45.1067 8.40153 45.4378 7.90466 45.8592 7.52825C46.2807 7.13678 46.7623 6.85071 47.3041 6.67003C47.8459 6.48936 48.4178 6.38396 49.0349 6.38396C50.2691 6.38396 51.3076 6.77543 52.1655 7.54331C53.0233 8.31119 53.4297 9.56087 53.4297 11.2472V16.9687H57.8245V10.5998C57.8245 9.36514 57.6439 8.23591 57.2827 7.21207Z" fill="white"/>
<path d="M62.8965 2.49937C62.8965 3.86951 61.7828 4.99875 60.3981 4.99875C59.0285 4.99875 57.8997 3.88457 57.8997 2.49937C57.8997 1.11418 59.0135 0 60.3981 0C61.7828 0 62.8965 1.11418 62.8965 2.49937Z" fill="white"/>
<path d="M29.8755 22.7954C29.8755 22.9912 29.8454 23.1719 29.7852 23.3224C29.725 23.473 29.6347 23.5934 29.5143 23.6988C29.3939 23.8042 29.2584 23.8795 29.1079 23.9247C28.9574 23.9699 28.7768 24 28.5811 24H26.8954V19.5734H28.5209C28.7015 19.5734 28.8671 19.6035 29.0326 19.6486C29.1982 19.7089 29.3186 19.7842 29.439 19.8745C29.5594 19.9799 29.6497 20.1003 29.7099 20.2358C29.7701 20.3714 29.8002 20.537 29.8002 20.7177C29.8002 20.9586 29.74 21.1543 29.6196 21.335C29.4992 21.5156 29.3336 21.6361 29.1079 21.7114C29.3487 21.8017 29.5293 21.9222 29.6648 22.1179C29.8153 22.3136 29.8755 22.5395 29.8755 22.7954ZM29.4691 20.7327C29.4691 20.5821 29.439 20.4466 29.3939 20.3412C29.3487 20.2358 29.2734 20.1455 29.1831 20.0702C29.0928 20.01 28.9875 19.9498 28.8671 19.9197C28.7467 19.8896 28.6263 19.8745 28.4908 19.8745H27.2266V21.5909H28.4908C28.6263 21.5909 28.7467 21.5759 28.8671 21.5458C28.9875 21.5156 29.0928 21.4554 29.1831 21.3952C29.2734 21.3199 29.3487 21.2446 29.3939 21.1242C29.439 21.0188 29.4691 20.8833 29.4691 20.7327ZM29.5444 22.7954C29.5444 22.5094 29.4541 22.2835 29.2734 22.133C29.0928 21.9673 28.852 21.8921 28.551 21.8921H27.2416V23.7139H28.551C28.852 23.7139 29.0928 23.6386 29.2734 23.473C29.4541 23.3074 29.5444 23.0815 29.5444 22.7954Z" fill="white"/>
<path d="M34.5562 21.7867C34.5562 22.0276 34.5562 22.2534 34.5562 22.4341C34.5562 22.6148 34.5412 22.7653 34.5111 22.9159C34.481 23.0665 34.4509 23.1719 34.3907 23.2773C34.3305 23.3827 34.2552 23.488 34.1499 23.5934C33.9993 23.744 33.8338 23.8494 33.6381 23.9247C33.4425 24 33.2468 24.0451 33.0361 24.0451C32.8254 24.0451 32.6147 24 32.4341 23.9247C32.2384 23.8494 32.0729 23.729 31.9224 23.5934C31.817 23.488 31.7418 23.3827 31.6815 23.2773C31.6213 23.1719 31.5912 23.0514 31.5611 22.9159C31.531 22.7804 31.516 22.6148 31.516 22.4341C31.516 22.2534 31.516 22.0426 31.516 21.7867C31.516 21.5307 31.516 21.3199 31.516 21.1392C31.516 20.9586 31.531 20.808 31.5611 20.6574C31.5912 20.5069 31.6364 20.4015 31.6815 20.2961C31.7418 20.1907 31.817 20.0853 31.9224 19.9799C32.0729 19.8293 32.2384 19.7239 32.4341 19.6487C32.6297 19.5734 32.8254 19.5282 33.0361 19.5282C33.2468 19.5282 33.4425 19.5734 33.6381 19.6487C33.8338 19.7239 33.9993 19.8444 34.1499 19.9799C34.2552 20.0853 34.3305 20.1907 34.3907 20.2961C34.4509 20.4015 34.481 20.5219 34.5111 20.6574C34.5412 20.7929 34.5562 20.9586 34.5562 21.1392C34.5562 21.3199 34.5562 21.5458 34.5562 21.7867ZM34.2251 21.7867C34.2251 21.5458 34.2251 21.35 34.2101 21.1844C34.2101 21.0188 34.195 20.8682 34.1649 20.7478C34.1499 20.6273 34.1047 20.5219 34.0595 20.4316C34.0144 20.3412 33.9542 20.266 33.8789 20.1756C33.7736 20.0702 33.6381 19.9799 33.4876 19.9197C33.3371 19.8594 33.1866 19.8293 33.0361 19.8293C32.8705 19.8293 32.72 19.8594 32.5846 19.9197C32.4341 19.9799 32.3137 20.0552 32.1933 20.1756C32.118 20.2509 32.0578 20.3412 32.0127 20.4316C31.9675 20.5219 31.9374 20.6273 31.9073 20.7478C31.8772 20.8682 31.8772 21.0188 31.8622 21.1844C31.8471 21.35 31.8471 21.5608 31.8471 21.7867C31.8471 22.0276 31.8471 22.2233 31.8622 22.3889C31.8622 22.5545 31.8772 22.7051 31.9073 22.8256C31.9224 22.946 31.9675 23.0514 32.0127 23.1417C32.0578 23.2321 32.118 23.3074 32.1933 23.3977C32.2986 23.5031 32.4341 23.5934 32.5846 23.6537C32.7351 23.7139 32.8856 23.744 33.0361 23.744C33.1866 23.744 33.3522 23.7139 33.4876 23.6537C33.6381 23.5934 33.7585 23.5182 33.8789 23.3977C33.9542 23.3224 34.0144 23.2321 34.0595 23.1417C34.1047 23.0514 34.1348 22.946 34.1649 22.8256C34.18 22.7051 34.195 22.5545 34.2101 22.3889C34.2251 22.2233 34.2251 22.0276 34.2251 21.7867Z" fill="white"/>
<path d="M37.9275 21.9673H36.7084V24.015H36.3773V19.5734H38.063C38.2436 19.5734 38.4092 19.6035 38.5597 19.6486C38.7102 19.7089 38.8456 19.7842 38.966 19.8745C39.0864 19.9799 39.1767 20.1003 39.2369 20.2509C39.2971 20.4015 39.3272 20.5671 39.3272 20.7628C39.3272 21.0941 39.2369 21.3651 39.0563 21.5759C38.8757 21.7867 38.6199 21.9071 38.3189 21.9673L39.3874 24.015H38.9811L37.9275 21.9673ZM38.9961 20.7628C38.9961 20.4617 38.9058 20.2358 38.7252 20.0853C38.5446 19.9347 38.3038 19.8745 38.0178 19.8745H36.7084V21.6662H38.0178C38.3038 21.6662 38.5446 21.5909 38.7252 21.4554C38.9058 21.3049 38.9961 21.079 38.9961 20.7628Z" fill="white"/>
<path d="M44.1134 21.7264C44.1134 21.877 44.1134 22.0426 44.1134 22.2082C44.1134 22.3739 44.0983 22.5545 44.0682 22.7202C44.0381 22.8858 43.993 23.0514 43.9328 23.202C43.8726 23.3525 43.7823 23.488 43.6769 23.5934C43.406 23.8645 43.0448 24 42.5632 24H41.0882V19.5734H42.5782C43.0448 19.5734 43.421 19.7089 43.692 19.9799C43.7973 20.0853 43.8876 20.2208 43.9478 20.3563C44.008 20.4918 44.0532 20.6424 44.0833 20.7929C44.1134 20.9435 44.1284 21.0941 44.1284 21.2597C44.1134 21.4253 44.1134 21.5759 44.1134 21.7264ZM43.7823 21.7264C43.7823 21.606 43.7823 21.4705 43.7823 21.335C43.7823 21.1995 43.7672 21.064 43.7522 20.9284C43.7371 20.7929 43.707 20.6574 43.6619 20.537C43.6167 20.4165 43.5565 20.3111 43.4662 20.2208C43.3307 20.0853 43.1953 19.9949 43.0297 19.9498C42.8642 19.9046 42.6986 19.8745 42.518 19.8745H41.4494V23.7139H42.518C42.6986 23.7139 42.8642 23.6838 43.0297 23.6386C43.1953 23.5934 43.3458 23.5031 43.4662 23.3676C43.5565 23.2773 43.6167 23.1568 43.6619 23.0213C43.707 22.8858 43.7371 22.7352 43.7522 22.5847C43.7672 22.4341 43.7823 22.2835 43.7823 22.133C43.7672 21.9975 43.7823 21.8469 43.7823 21.7264Z" fill="white"/>
<path d="M45.9345 19.5734H48.6135V19.8745H46.2656V21.621H48.2674V21.9222H46.2656V23.7139H48.6135V24H45.9345V19.5734Z" fill="white"/>
<path d="M52.4966 22.931H50.4347L50.0433 24.0151H49.6821L51.3076 19.5885H51.6086L53.2341 24.0151H52.8729L52.4966 22.931ZM50.54 22.6299H52.3912L51.4581 20.0251L50.54 22.6299Z" fill="white"/>
<path d="M57.6138 22.5696C57.6138 22.7804 57.5837 22.9912 57.4934 23.1568C57.4031 23.3224 57.3128 23.488 57.1773 23.6236C57.0419 23.7591 56.8763 23.8645 56.6957 23.9247C56.5151 24 56.3044 24.0301 56.0786 24.0301C55.8529 24.0301 55.6422 24 55.4616 23.9247C55.281 23.8494 55.1154 23.744 54.9799 23.6236C54.8445 23.488 54.7391 23.3375 54.6639 23.1568C54.5886 22.9761 54.5585 22.7804 54.5585 22.5696V19.5734H54.8896V22.5244C54.8896 22.7051 54.9197 22.8707 54.9799 23.0213C55.0402 23.1719 55.1154 23.3074 55.2208 23.4128C55.3261 23.5182 55.4465 23.5934 55.597 23.6537C55.7475 23.7139 55.898 23.744 56.0786 23.744C56.2593 23.744 56.4248 23.7139 56.5603 23.6537C56.7108 23.5934 56.8312 23.5182 56.9365 23.4128C57.0419 23.3074 57.1171 23.1719 57.1773 23.0213C57.2375 22.8707 57.2526 22.7051 57.2526 22.5244V19.5734H57.5837L57.6138 22.5696Z" fill="white"/>
<path d="M60.5035 22.0276L59.3596 24H58.9683L60.3379 21.7264L59.0586 19.5734H59.4499L60.5035 21.4404L61.5721 19.5734H61.9634L60.6841 21.7264L62.0688 24H61.6624L60.5035 22.0276Z" fill="white"/>
</g>
<defs>
<clipPath id="clip0_166_511">
<rect width="62.8966" height="24" fill="white"/>
</clipPath>
</defs>
</svg>
