<svg width="19" height="19" viewBox="0 0 19 19" fill="none" xmlns="http://www.w3.org/2000/svg">
<path d="M15.8442 11.7294C14.9442 11.7294 13.9692 11.5794 13.1442 11.2794H12.9192C12.6942 11.2794 12.5442 11.3544 12.3942 11.5044L10.7442 13.1544C8.64421 12.0294 6.84421 10.3044 5.79421 8.20437L7.44421 6.55437C7.66921 6.32937 7.74421 6.02937 7.59421 5.80437C7.36921 4.97937 7.21921 4.00437 7.21921 3.10437C7.21921 2.72937 6.84421 2.35437 6.46921 2.35437H3.84421C3.46921 2.35437 3.09421 2.72937 3.09421 3.10437C3.09421 10.1544 8.79421 15.8544 15.8442 15.8544C16.2192 15.8544 16.5942 15.4794 16.5942 15.1044V12.4794C16.5942 12.1044 16.2192 11.7294 15.8442 11.7294ZM4.59421 3.85437H5.71921C5.79421 4.52937 5.94421 5.20437 6.09421 5.80437L5.19421 6.70437C4.89421 5.80437 4.66921 4.82937 4.59421 3.85437ZM15.0942 14.3544C14.1192 14.2794 13.1442 14.0544 12.2442 13.7544L13.1442 12.8544C13.7442 13.0044 14.4192 13.1544 15.0942 13.1544V14.3544Z" fill="#4271CB"/>
</svg>
