<svg width="14" height="14" viewBox="0 0 14 14" fill="none" xmlns="http://www.w3.org/2000/svg">
<path d="M12.8442 9.72937C11.9442 9.72937 10.9692 9.57937 10.1442 9.27937H9.91921C9.69421 9.27937 9.54421 9.35437 9.39421 9.50437L7.74421 11.1544C5.64421 10.0294 3.84421 8.30437 2.79421 6.20437L4.44421 4.55437C4.66921 4.32937 4.74421 4.02937 4.59421 3.80437C4.36921 2.97937 4.21921 2.00437 4.21921 1.10437C4.21921 0.72937 3.84421 0.35437 3.46921 0.35437H0.844208C0.469208 0.35437 0.0942078 0.72937 0.0942078 1.10437C0.0942078 8.15437 5.79421 13.8544 12.8442 13.8544C13.2192 13.8544 13.5942 13.4794 13.5942 13.1044V10.4794C13.5942 10.1044 13.2192 9.72937 12.8442 9.72937ZM1.59421 1.85437H2.71921C2.79421 2.52937 2.94421 3.20437 3.09421 3.80437L2.19421 4.70437C1.89421 3.80437 1.66921 2.82937 1.59421 1.85437ZM12.0942 12.3544C11.1192 12.2794 10.1442 12.0544 9.24421 11.7544L10.1442 10.8544C10.7442 11.0044 11.4192 11.1544 12.0942 11.1544V12.3544Z" fill="#4271CB"/>
</svg>
