<svg width="32" height="32" viewBox="0 0 32 32" fill="none" xmlns="http://www.w3.org/2000/svg">
    <path d="M29.2831 17.2481H30.375V14.7519H29.2831V17.2481ZM27.1315 14.021H28.2234V17.979H27.1315V14.021ZM25.016 11.9737H26.1079V20.0262H25.016V11.9737ZM23.0049 10.394H24.0968V21.5323H23.0049V10.3967V10.394ZM20.8519 13.1141H21.9438V18.8859H20.8519V13.1141ZM18.6648 8.74662H19.7567V23.5004H18.6614V8.74662H18.6648ZM16.5125 6.63124H17.6044V25.3687H16.5125V6.63124ZM14.397 9.52399H15.4889V22.4761H14.397V9.52393V9.52399ZM12.2085 13.2021H13.3004V18.6615H12.2085V13.2021ZM10.0931 14.5036H11.1849V17.5012H10.0931V14.4986V14.5036ZM7.97756 12.8998H9.06944V19.1023H7.97756V12.8978V12.8998ZM5.89619 9.89731H6.98806V22.4576H5.89625V9.89512L5.89619 9.89731ZM3.78075 11.8162H4.87262V20.2917H3.78075V11.8141V11.8162ZM1.625 14.021H2.71688V17.979H1.625V14.021Z" fill="white"/>
</svg>
