<svg width="32" height="32" viewBox="0 0 32 32" fill="none" xmlns="http://www.w3.org/2000/svg">
<path d="M29.2831 17.6H30.375V14.4H29.2831V17.6ZM27.1315 14.4H28.2234V17.6H27.1315V14.4ZM25.016 14.4H26.1079V17.6H25.016V14.4ZM23.0049 14.4H24.0968V17.6H23.0049V14.4027V14.4ZM20.8519 14.4H21.9438V17.6H20.8519V14.4ZM18.6648 14.4H19.7567V17.6H18.6614V14.4H18.6648ZM16.5125 14.4H17.6044V17.6H16.5125V14.4ZM14.397 14.4H15.4889V17.6H14.397V14.4ZM12.2085 14.4H13.3004V17.6H12.2085V14.4ZM10.0931 14.4049H11.1849V17.6H10.0931V14.4V14.4049ZM7.97756 14.4H9.06944V17.6H7.97756V14.398V14.4ZM5.89619 14.4022H6.98806V17.6H5.89625V14.4L5.89619 14.4022ZM3.78075 14.4H4.87263V17.6H3.78075V14.3979V14.4ZM1.625 14.4H2.71688V17.6H1.625V14.4Z" fill="white"/>
</svg>
