<svg width="18" height="19" viewBox="0 0 18 19" fill="none" xmlns="http://www.w3.org/2000/svg">
<path d="M12.77 11.1044C12.83 10.6094 12.875 10.1144 12.875 9.60437C12.875 9.09437 12.83 8.59937 12.77 8.10437H15.305C15.425 8.58437 15.5 9.08687 15.5 9.60437C15.5 10.1219 15.425 10.6244 15.305 11.1044M11.4425 15.2744C11.8925 14.4419 12.2375 13.5419 12.4775 12.6044H14.69C13.9634 13.8556 12.8106 14.8034 11.4425 15.2744ZM11.255 11.1044H7.745C7.67 10.6094 7.625 10.1144 7.625 9.60437C7.625 9.09437 7.67 8.59187 7.745 8.10437H11.255C11.3225 8.59187 11.375 9.09437 11.375 9.60437C11.375 10.1144 11.3225 10.6094 11.255 11.1044ZM9.5 15.5744C8.8775 14.6744 8.375 13.6769 8.0675 12.6044H10.9325C10.625 13.6769 10.1225 14.6744 9.5 15.5744ZM6.5 6.60437H4.31C5.02914 5.34978 6.1811 4.40048 7.55 3.93437C7.1 4.76687 6.7625 5.66687 6.5 6.60437ZM4.31 12.6044H6.5C6.7625 13.5419 7.1 14.4419 7.55 15.2744C6.18397 14.8031 5.03363 13.8552 4.31 12.6044ZM3.695 11.1044C3.575 10.6244 3.5 10.1219 3.5 9.60437C3.5 9.08687 3.575 8.58437 3.695 8.10437H6.23C6.17 8.59937 6.125 9.09437 6.125 9.60437C6.125 10.1144 6.17 10.6094 6.23 11.1044M9.5 3.62687C10.1225 4.52687 10.625 5.53187 10.9325 6.60437H8.0675C8.375 5.53187 8.8775 4.52687 9.5 3.62687ZM14.69 6.60437H12.4775C12.2428 5.67546 11.8952 4.77879 11.4425 3.93437C12.8225 4.40687 13.97 5.35937 14.69 6.60437ZM9.5 2.10437C5.3525 2.10437 2 5.47937 2 9.60437C2 11.5935 2.79018 13.5011 4.1967 14.9077C4.89314 15.6041 5.71993 16.1566 6.62987 16.5335C7.53982 16.9104 8.51509 17.1044 9.5 17.1044C11.4891 17.1044 13.3968 16.3142 14.8033 14.9077C16.2098 13.5011 17 11.5935 17 9.60437C17 8.61946 16.806 7.64419 16.4291 6.73424C16.0522 5.8243 15.4997 4.99751 14.8033 4.30107C14.1069 3.60463 13.2801 3.05218 12.3701 2.67527C11.4602 2.29836 10.4849 2.10437 9.5 2.10437Z" fill="#4271CB"/>
</svg>
